<mxfile host="app.diagrams.net" modified="2021-11-02T14:42:00.997Z" agent="5.0 (Macintosh; Intel Mac OS X 10_15_7) AppleWebKit/537.36 (KHTML, like Gecko) Chrome/95.0.4638.69 Safari/537.36" etag="bagf53x0L-e7rKi4umts" version="15.6.5" type="github">
  <diagram id="C5RBs43oDa-KdzZeNtuy" name="Page-1">
    <mxGraphModel dx="945" dy="560" grid="1" gridSize="10" guides="1" tooltips="1" connect="1" arrows="1" fold="1" page="1" pageScale="1" pageWidth="827" pageHeight="1169" math="0" shadow="0">
      <root>
        <mxCell id="WIyWlLk6GJQsqaUBKTNV-0" />
        <mxCell id="WIyWlLk6GJQsqaUBKTNV-1" parent="WIyWlLk6GJQsqaUBKTNV-0" />
        <mxCell id="WCmb3ZS0miNEBh6L_WHi-0" value="Запрос к API на добавление в регистр (in memory) номера инцидента" style="rounded=1;whiteSpace=wrap;html=1;fontSize=9;glass=0;strokeWidth=1;shadow=0;fillColor=#fff2cc;strokeColor=#d6b656;fontColor=default;" vertex="1" parent="WIyWlLk6GJQsqaUBKTNV-1">
          <mxGeometry x="100" y="100" width="120" height="40" as="geometry" />
        </mxCell>
        <mxCell id="WCmb3ZS0miNEBh6L_WHi-31" style="edgeStyle=orthogonalEdgeStyle;rounded=0;orthogonalLoop=1;jettySize=auto;html=1;entryX=0;entryY=0.5;entryDx=0;entryDy=0;labelBackgroundColor=default;fontSize=15;fontColor=default;strokeColor=default;" edge="1" parent="WIyWlLk6GJQsqaUBKTNV-1" source="WCmb3ZS0miNEBh6L_WHi-1" target="WCmb3ZS0miNEBh6L_WHi-30">
          <mxGeometry relative="1" as="geometry">
            <Array as="points">
              <mxPoint x="350" y="180" />
            </Array>
          </mxGeometry>
        </mxCell>
        <mxCell id="WCmb3ZS0miNEBh6L_WHi-1" value="Добавлен?" style="rhombus;whiteSpace=wrap;html=1;shadow=0;fontFamily=Helvetica;fontSize=12;align=center;strokeWidth=1;spacing=6;spacingTop=-4;fillColor=#ffe6cc;strokeColor=#d79b00;fontColor=default;" vertex="1" parent="WIyWlLk6GJQsqaUBKTNV-1">
          <mxGeometry x="300" y="80" width="100" height="80" as="geometry" />
        </mxCell>
        <mxCell id="WCmb3ZS0miNEBh6L_WHi-2" value="" style="rounded=0;html=1;jettySize=auto;orthogonalLoop=1;fontSize=11;endArrow=block;endFill=0;endSize=8;strokeWidth=1;shadow=0;labelBackgroundColor=none;edgeStyle=orthogonalEdgeStyle;exitX=1;exitY=0.5;exitDx=0;exitDy=0;strokeColor=default;fontColor=default;entryX=0;entryY=0.5;entryDx=0;entryDy=0;" edge="1" parent="WIyWlLk6GJQsqaUBKTNV-1" source="WCmb3ZS0miNEBh6L_WHi-0" target="WCmb3ZS0miNEBh6L_WHi-1">
          <mxGeometry relative="1" as="geometry">
            <mxPoint x="230" y="240" as="sourcePoint" />
            <mxPoint x="310" y="240" as="targetPoint" />
          </mxGeometry>
        </mxCell>
        <mxCell id="WCmb3ZS0miNEBh6L_WHi-3" value="Yes" style="edgeStyle=orthogonalEdgeStyle;rounded=0;html=1;jettySize=auto;orthogonalLoop=1;fontSize=11;endArrow=block;endFill=0;endSize=8;strokeWidth=1;shadow=0;labelBackgroundColor=none;exitX=1;exitY=0.5;exitDx=0;exitDy=0;strokeColor=default;fontColor=default;startArrow=none;entryX=0;entryY=0.5;entryDx=0;entryDy=0;" edge="1" parent="WIyWlLk6GJQsqaUBKTNV-1" source="WCmb3ZS0miNEBh6L_WHi-1" target="WIyWlLk6GJQsqaUBKTNV-12">
          <mxGeometry y="10" relative="1" as="geometry">
            <mxPoint as="offset" />
            <mxPoint x="690" y="240" as="sourcePoint" />
            <mxPoint x="680" y="170" as="targetPoint" />
            <Array as="points">
              <mxPoint x="440" y="120" />
              <mxPoint x="440" y="120" />
            </Array>
          </mxGeometry>
        </mxCell>
        <mxCell id="WIyWlLk6GJQsqaUBKTNV-12" value="200 Ок - Success" style="rounded=1;whiteSpace=wrap;html=1;fontSize=12;glass=0;strokeWidth=1;shadow=0;fillColor=default;strokeColor=default;fontColor=default;" parent="WIyWlLk6GJQsqaUBKTNV-1" vertex="1">
          <mxGeometry x="530" y="100" width="120" height="40" as="geometry" />
        </mxCell>
        <mxCell id="WCmb3ZS0miNEBh6L_WHi-10" style="edgeStyle=orthogonalEdgeStyle;rounded=0;orthogonalLoop=1;jettySize=auto;html=1;fontSize=10;fontColor=default;strokeColor=default;" edge="1" parent="WIyWlLk6GJQsqaUBKTNV-1" source="WCmb3ZS0miNEBh6L_WHi-5" target="WCmb3ZS0miNEBh6L_WHi-6">
          <mxGeometry relative="1" as="geometry" />
        </mxCell>
        <mxCell id="WCmb3ZS0miNEBh6L_WHi-5" value="старт проверки добавления нового комментария через промежутки времени t" style="rounded=1;whiteSpace=wrap;html=1;fontSize=9;glass=0;strokeWidth=1;shadow=0;fillColor=#fff2cc;strokeColor=#d6b656;fontColor=default;" vertex="1" parent="WIyWlLk6GJQsqaUBKTNV-1">
          <mxGeometry x="100" y="250" width="120" height="40" as="geometry" />
        </mxCell>
        <mxCell id="WCmb3ZS0miNEBh6L_WHi-11" style="edgeStyle=orthogonalEdgeStyle;rounded=0;orthogonalLoop=1;jettySize=auto;html=1;entryX=0.5;entryY=0;entryDx=0;entryDy=0;fontSize=10;fontColor=default;strokeColor=default;" edge="1" parent="WIyWlLk6GJQsqaUBKTNV-1" source="WCmb3ZS0miNEBh6L_WHi-6" target="WCmb3ZS0miNEBh6L_WHi-8">
          <mxGeometry relative="1" as="geometry" />
        </mxCell>
        <mxCell id="WCmb3ZS0miNEBh6L_WHi-6" value="выборка данных по инциденту путем запроса к API Rvision" style="rounded=1;whiteSpace=wrap;html=1;fontSize=9;glass=0;strokeWidth=1;shadow=0;fillColor=default;strokeColor=default;fontColor=default;" vertex="1" parent="WIyWlLk6GJQsqaUBKTNV-1">
          <mxGeometry x="100" y="320" width="120" height="40" as="geometry" />
        </mxCell>
        <mxCell id="WCmb3ZS0miNEBh6L_WHi-14" style="edgeStyle=orthogonalEdgeStyle;rounded=0;orthogonalLoop=1;jettySize=auto;html=1;entryX=0.5;entryY=0;entryDx=0;entryDy=0;fontSize=10;fontColor=default;strokeColor=default;" edge="1" parent="WIyWlLk6GJQsqaUBKTNV-1" source="WCmb3ZS0miNEBh6L_WHi-8" target="WCmb3ZS0miNEBh6L_WHi-13">
          <mxGeometry relative="1" as="geometry" />
        </mxCell>
        <mxCell id="WCmb3ZS0miNEBh6L_WHi-17" style="edgeStyle=orthogonalEdgeStyle;rounded=0;orthogonalLoop=1;jettySize=auto;html=1;entryX=0;entryY=0.5;entryDx=0;entryDy=0;fontSize=10;fontColor=default;strokeColor=default;" edge="1" parent="WIyWlLk6GJQsqaUBKTNV-1" source="WCmb3ZS0miNEBh6L_WHi-8" target="WCmb3ZS0miNEBh6L_WHi-16">
          <mxGeometry relative="1" as="geometry" />
        </mxCell>
        <mxCell id="WCmb3ZS0miNEBh6L_WHi-8" value="В поле &lt;br&gt;&quot;комментарий оператора ЦМУ&quot; есть данные?" style="rhombus;whiteSpace=wrap;html=1;shadow=0;fontFamily=Helvetica;fontSize=10;align=center;strokeWidth=1;spacing=6;spacingTop=-4;fillColor=#ffe6cc;strokeColor=#d79b00;fontColor=default;" vertex="1" parent="WIyWlLk6GJQsqaUBKTNV-1">
          <mxGeometry x="100" y="390" width="120" height="110" as="geometry" />
        </mxCell>
        <mxCell id="WCmb3ZS0miNEBh6L_WHi-27" style="edgeStyle=orthogonalEdgeStyle;rounded=0;orthogonalLoop=1;jettySize=auto;html=1;entryX=0;entryY=0.5;entryDx=0;entryDy=0;labelBackgroundColor=default;fontSize=10;fontColor=default;strokeColor=default;" edge="1" parent="WIyWlLk6GJQsqaUBKTNV-1" source="WCmb3ZS0miNEBh6L_WHi-13" target="WCmb3ZS0miNEBh6L_WHi-5">
          <mxGeometry relative="1" as="geometry">
            <Array as="points">
              <mxPoint x="80" y="890" />
              <mxPoint x="80" y="270" />
            </Array>
          </mxGeometry>
        </mxCell>
        <mxCell id="WCmb3ZS0miNEBh6L_WHi-13" value="Ожидание таймаута для старта проверки" style="rounded=1;whiteSpace=wrap;html=1;fontSize=9;glass=0;strokeWidth=1;shadow=0;fillColor=default;strokeColor=default;fontColor=default;" vertex="1" parent="WIyWlLk6GJQsqaUBKTNV-1">
          <mxGeometry x="100" y="870" width="120" height="40" as="geometry" />
        </mxCell>
        <mxCell id="WCmb3ZS0miNEBh6L_WHi-15" value="Нет" style="text;html=1;strokeColor=none;fillColor=none;align=center;verticalAlign=middle;whiteSpace=wrap;rounded=0;fontSize=10;fontColor=default;" vertex="1" parent="WIyWlLk6GJQsqaUBKTNV-1">
          <mxGeometry x="149" y="500" width="60" height="30" as="geometry" />
        </mxCell>
        <mxCell id="WCmb3ZS0miNEBh6L_WHi-20" style="edgeStyle=orthogonalEdgeStyle;rounded=0;orthogonalLoop=1;jettySize=auto;html=1;entryX=0.5;entryY=0;entryDx=0;entryDy=0;fontSize=10;fontColor=default;strokeColor=default;" edge="1" parent="WIyWlLk6GJQsqaUBKTNV-1" source="WCmb3ZS0miNEBh6L_WHi-16" target="WCmb3ZS0miNEBh6L_WHi-19">
          <mxGeometry relative="1" as="geometry" />
        </mxCell>
        <mxCell id="WCmb3ZS0miNEBh6L_WHi-16" value="Проверить комментарии на предмет запрещенных символов и заменить их" style="rounded=1;whiteSpace=wrap;html=1;fontSize=9;glass=0;strokeWidth=1;shadow=0;fillColor=default;strokeColor=default;fontColor=default;" vertex="1" parent="WIyWlLk6GJQsqaUBKTNV-1">
          <mxGeometry x="270" y="425" width="120" height="40" as="geometry" />
        </mxCell>
        <mxCell id="WCmb3ZS0miNEBh6L_WHi-18" value="Да" style="text;html=1;strokeColor=none;fillColor=none;align=center;verticalAlign=middle;whiteSpace=wrap;rounded=0;fontSize=10;fontColor=default;" vertex="1" parent="WIyWlLk6GJQsqaUBKTNV-1">
          <mxGeometry x="209" y="410" width="60" height="30" as="geometry" />
        </mxCell>
        <mxCell id="WCmb3ZS0miNEBh6L_WHi-22" style="edgeStyle=orthogonalEdgeStyle;rounded=0;orthogonalLoop=1;jettySize=auto;html=1;entryX=0.5;entryY=0;entryDx=0;entryDy=0;fontSize=10;fontColor=default;strokeColor=default;" edge="1" parent="WIyWlLk6GJQsqaUBKTNV-1" source="WCmb3ZS0miNEBh6L_WHi-19" target="WCmb3ZS0miNEBh6L_WHi-21">
          <mxGeometry relative="1" as="geometry" />
        </mxCell>
        <mxCell id="WCmb3ZS0miNEBh6L_WHi-19" value="Передать этот комментарий в API-сервис отправки комментариев в Jira" style="rounded=1;whiteSpace=wrap;html=1;fontSize=9;glass=0;strokeWidth=1;shadow=0;fillColor=default;strokeColor=default;fontColor=default;" vertex="1" parent="WIyWlLk6GJQsqaUBKTNV-1">
          <mxGeometry x="270" y="510" width="120" height="40" as="geometry" />
        </mxCell>
        <mxCell id="WCmb3ZS0miNEBh6L_WHi-24" style="edgeStyle=orthogonalEdgeStyle;rounded=0;orthogonalLoop=1;jettySize=auto;html=1;entryX=0.5;entryY=0;entryDx=0;entryDy=0;fontSize=10;fontColor=default;strokeColor=default;" edge="1" parent="WIyWlLk6GJQsqaUBKTNV-1" source="WCmb3ZS0miNEBh6L_WHi-21" target="WCmb3ZS0miNEBh6L_WHi-23">
          <mxGeometry relative="1" as="geometry" />
        </mxCell>
        <mxCell id="WCmb3ZS0miNEBh6L_WHi-21" value="Подготовить информацию для перезаписи данных инцидента:&lt;br&gt;&lt;br&gt;1) суммарные комментарии = суммарные комментарии + комментарий оператора ЦМУ&lt;br&gt;&lt;br&gt;2) комментарий оператора ЦМУ = &quot;&quot;" style="rounded=1;whiteSpace=wrap;html=1;fontSize=9;glass=0;strokeWidth=1;shadow=0;fillColor=default;strokeColor=default;fontColor=default;" vertex="1" parent="WIyWlLk6GJQsqaUBKTNV-1">
          <mxGeometry x="270" y="610" width="120" height="120" as="geometry" />
        </mxCell>
        <mxCell id="WCmb3ZS0miNEBh6L_WHi-26" style="edgeStyle=orthogonalEdgeStyle;rounded=0;orthogonalLoop=1;jettySize=auto;html=1;entryX=1;entryY=0.5;entryDx=0;entryDy=0;fontSize=10;fontColor=default;strokeColor=default;labelBackgroundColor=default;" edge="1" parent="WIyWlLk6GJQsqaUBKTNV-1" source="WCmb3ZS0miNEBh6L_WHi-23" target="WCmb3ZS0miNEBh6L_WHi-13">
          <mxGeometry relative="1" as="geometry">
            <mxPoint x="330" y="870" as="targetPoint" />
            <Array as="points">
              <mxPoint x="330" y="890" />
            </Array>
          </mxGeometry>
        </mxCell>
        <mxCell id="WCmb3ZS0miNEBh6L_WHi-23" value="перезаписать данные инцидента" style="rounded=1;whiteSpace=wrap;html=1;fontSize=9;glass=0;strokeWidth=1;shadow=0;fillColor=default;strokeColor=default;fontColor=default;" vertex="1" parent="WIyWlLk6GJQsqaUBKTNV-1">
          <mxGeometry x="270" y="780" width="120" height="40" as="geometry" />
        </mxCell>
        <mxCell id="WCmb3ZS0miNEBh6L_WHi-28" value="2. Сценарий проверки&amp;nbsp;" style="text;html=1;strokeColor=none;fillColor=none;align=center;verticalAlign=middle;whiteSpace=wrap;rounded=0;fontSize=15;fontColor=default;fontStyle=1" vertex="1" parent="WIyWlLk6GJQsqaUBKTNV-1">
          <mxGeometry x="89" y="210" width="381" height="30" as="geometry" />
        </mxCell>
        <mxCell id="WCmb3ZS0miNEBh6L_WHi-29" value="1. Сценарий добавления&amp;nbsp;" style="text;html=1;strokeColor=none;fillColor=none;align=center;verticalAlign=middle;whiteSpace=wrap;rounded=0;fontSize=15;fontColor=default;fontStyle=1" vertex="1" parent="WIyWlLk6GJQsqaUBKTNV-1">
          <mxGeometry x="100" y="40" width="381" height="30" as="geometry" />
        </mxCell>
        <mxCell id="WCmb3ZS0miNEBh6L_WHi-30" value="нет обработчика" style="rounded=1;whiteSpace=wrap;html=1;fontSize=12;glass=0;strokeWidth=1;shadow=0;fillColor=default;strokeColor=default;fontColor=default;" vertex="1" parent="WIyWlLk6GJQsqaUBKTNV-1">
          <mxGeometry x="530" y="160" width="120" height="40" as="geometry" />
        </mxCell>
        <mxCell id="WCmb3ZS0miNEBh6L_WHi-32" value="Нет" style="text;html=1;strokeColor=none;fillColor=none;align=center;verticalAlign=middle;whiteSpace=wrap;rounded=0;fontSize=10;fontColor=default;" vertex="1" parent="WIyWlLk6GJQsqaUBKTNV-1">
          <mxGeometry x="340" y="150" width="60" height="30" as="geometry" />
        </mxCell>
      </root>
    </mxGraphModel>
  </diagram>
</mxfile>
